<?xml version="1.0" encoding="UTF-8" standalone="no"?>
<!-- Created with Inkscape (http://www.inkscape.org/) -->

<svg
   width="28.657682mm"
   height="31.874428mm"
   viewBox="0 0 28.657683 31.874427"
   version="1.1"
   id="svg5"
   inkscape:version="1.1.1 (3bf5ae0d25, 2021-09-20)"
   xmlns:inkscape="http://www.inkscape.org/namespaces/inkscape"
   xmlns:sodipodi="http://sodipodi.sourceforge.net/DTD/sodipodi-0.dtd"
   xmlns:xlink="http://www.w3.org/1999/xlink"
   xmlns="http://www.w3.org/2000/svg"
   xmlns:svg="http://www.w3.org/2000/svg">
  <sodipodi:namedview
     id="namedview7"
     pagecolor="#ffffff"
     bordercolor="#666666"
     borderopacity="1.0"
     inkscape:pageshadow="2"
     inkscape:pageopacity="0.0"
     inkscape:pagecheckerboard="0"
     inkscape:document-units="mm"
     showgrid="false"
     inkscape:snap-center="false"
     inkscape:zoom="0.77771465"
     inkscape:cx="-124.72441"
     inkscape:cy="499.54055"
     inkscape:window-width="1547"
     inkscape:window-height="1088"
     inkscape:window-x="4208"
     inkscape:window-y="205"
     inkscape:window-maximized="0"
     inkscape:current-layer="layer1"
     fit-margin-top="0"
     fit-margin-left="0"
     fit-margin-right="0"
     fit-margin-bottom="0" />
  <defs
     id="defs2">
    <linearGradient
       id="2">
      <stop
         id="7"
         stop-color="#f0ff80" />
      <stop
         id="8"
         offset="1"
         stop-color="#8bb300" />
    </linearGradient>
    <linearGradient
       id="3">
      <stop
         id="9"
         stop-color="#eee" />
      <stop
         id="A"
         offset="1"
         stop-color="#eee"
         stop-opacity="0" />
    </linearGradient>
    <linearGradient
       x1="12.13"
       x2="115.88"
       id="4"
       xlink:href="#2"
       gradientUnits="userSpaceOnUse" />
    <radialGradient
       cx="24.040001"
       cy="14.408"
       r="56.16"
       id="5"
       xlink:href="#3"
       gradientUnits="userSpaceOnUse"
       gradientTransform="matrix(-0.00700488,2.356201,-2.0121108,-0.00598191,13.912967,-0.09034673)" />
  </defs>
  <g
     inkscape:label="Layer 1"
     inkscape:groupmode="layer"
     id="layer1"
     transform="translate(-23.051729,-16.262266)">
    <g
       transform="matrix(-0.26458333,0,0,-0.26458333,54.313903,49.194609)"
       id="6">
      <path
         d="m 35.972931,4.0015838 c -0.762384,0.074709 -1.34381,0.7154163 -1.34433,1.4813933 V 45.480598 l -23.292568,0.02743 c -0.578849,-0.0026 -1.097288,0.326976 -1.3443291,0.850429 -0.2470412,0.523454 -0.1779463,1.145988 0.1920471,1.591127 l 53.142173,63.837076 c 0.287022,0.34198 0.705826,0.52656 1.152282,0.52123 0.446456,-0.005 0.873484,-0.19994 1.152283,-0.54866 L 117.83986,47.922154 c 0.35292,-0.445634 0.40948,-1.050688 0.16461,-1.563693 -0.24486,-0.513005 -0.74844,-0.844506 -1.31689,-0.850429 L 93.395011,45.480598 93.422446,5.4829771 C 93.420317,5.0859735 93.266795,4.7186559 92.983481,4.4405151 92.700167,4.1623743 92.310511,3.9964285 91.913505,4.0015838 H 36.110108 c -0.0457,-0.00211 -0.09148,-0.00211 -0.137177,0 z"
         id="B"
         fill="#007880"
         fill-rule="evenodd"
         stroke-width="3.393" />
      <path
         d="M 35.96875,4 C 35.206366,4.07471 34.62552,4.702773 34.625,5.46875 v 40 L 11.34375,45.5 C 10.764901,45.497402 10.247041,45.820297 10,46.34375 9.7529587,46.867206 9.8175066,47.492361 10.1875,47.9375 l 53.125,63.84375 c 0.0095,0.0113 0.02144,0.0203 0.03125,0.0312 H 12.5625 c -1.502066,0 -2.71875,1.21668 -2.71875,2.71875 v 7.21875 c 0,1.50207 1.216684,2.71875 2.71875,2.71875 h 102.875 c 1.50207,0 2.71875,-1.21668 2.71875,-2.71875 v -7.21875 c 0,-1.50207 -1.21669,-2.71875 -2.71875,-2.71875 h -49.875 c 0.01977,-0.0218 0.044,-0.0393 0.0625,-0.0625 L 117.84375,47.9375 C 118.19667,47.491867 118.24487,46.856755 118,46.34375 117.75514,45.830747 117.25595,45.505923 116.6875,45.5 l -23.28125,-0.03125 0.03125,-40 C 93.43537,5.0717466 93.252064,4.7156408 92.96875,4.4375 92.685435,4.1593593 92.303256,3.9948447 91.90625,4 H 36.125 C 36.0793,3.99789 36.014451,3.99789 35.96875,4 Z"
         id="C"
         fill="#638000"
         fill-rule="evenodd"
         stroke-width="3.393" />
      <path
         d="M 36.84375,6.21875 V 45.5 c -0.0068,1.227784 -0.990966,2.21196 -2.21875,2.21875 L 12.90625,47.75 64.4375,109.6875 115.09375,47.75 93.375,47.71875 C 92.147214,47.711961 91.13179,46.727784 91.125,45.5 L 91.15625,6.21875 Z m -22.03125,107.5 c -1.503236,0 -2.6875,1.21551 -2.6875,2.71875 v 3.375 c 0,1.50324 1.184264,2.71875 2.6875,2.71875 h 98.375 c 1.50324,0 2.6875,-1.21551 2.6875,-2.71875 v -3.375 c 0,-1.50324 -1.18426,-2.71875 -2.6875,-2.71875 z"
         id="D"
         fill="url(#4)"
         fill-rule="evenodd"
         stroke-width="3.393"
         style="fill:url(#4)" />
      <path
         d="M 38.21875,7.59375 V 45.5 c 0.0028,0.960207 -0.356768,1.888018 -1.03125,2.5625 -0.674481,0.674481 -1.602292,1.034038 -2.5625,1.03125 L 15.8125,49.125 64.4375,107.53125 112.21875,49.125 93.375,49.09375 C 92.414793,49.096539 91.486982,48.736982 90.8125,48.0625 90.138017,47.388017 89.778463,46.460206 89.78125,45.5 L 89.8125,7.59375 Z M 14.8125,115.28125 c -0.675358,0 -1.125,0.45617 -1.125,1.15625 v 3.375 c 0,0.70008 0.449642,1.15625 1.125,1.15625 h 98.375 c 0.67537,0 1.125,-0.45616 1.125,-1.15625 v -3.375 c 0,-0.70009 -0.44963,-1.15625 -1.125,-1.15625 z"
         id="E"
         fill="none"
         stroke="url(#5)"
         stroke-linecap="round"
         stroke-width="3.495"
         stroke-miterlimit="10"
         style="stroke:url(#5)" />
    </g>
  </g>
</svg>
