<?xml version="1.0" encoding="UTF-8" standalone="no"?>
<!-- Generator: Adobe Illustrator 19.1.0, SVG Export Plug-In . SVG Version: 6.00 Build 0)  -->

<svg
   version="1.1"
   x="0px"
   y="0px"
   viewBox="0 0 64 64"
   style="enable-background:new 0 0 64 64;"
   xml:space="preserve"
   id="svg22"
   sodipodi:docname="upload-disabled.svg"
   inkscape:version="1.1.1 (3bf5ae0d25, 2021-09-20)"
   xmlns:inkscape="http://www.inkscape.org/namespaces/inkscape"
   xmlns:sodipodi="http://sodipodi.sourceforge.net/DTD/sodipodi-0.dtd"
   xmlns="http://www.w3.org/2000/svg"
   xmlns:svg="http://www.w3.org/2000/svg"><defs
   id="defs26" /><sodipodi:namedview
   id="namedview24"
   pagecolor="#505050"
   bordercolor="#ffffff"
   borderopacity="1"
   inkscape:pageshadow="0"
   inkscape:pageopacity="0"
   inkscape:pagecheckerboard="1"
   showgrid="false"
   inkscape:zoom="13.640625"
   inkscape:cx="19.500573"
   inkscape:cy="31.963345"
   inkscape:window-width="5120"
   inkscape:window-height="1377"
   inkscape:window-x="1920"
   inkscape:window-y="34"
   inkscape:window-maximized="1"
   inkscape:current-layer="g6" />
<style
   type="text/css"
   id="style2">
	.st0{fill:#76C2AF;}
	.st1{opacity:0.2;}
	.st2{fill:#231F20;}
	.st3{fill:#FFFFFF;}
</style>
<g
   id="Layer_1">
	<g
   id="g6">
		<circle
   class="st0"
   cx="32"
   cy="32"
   r="32"
   id="circle4"
   inkscape:label="circle4"
   style="fill:#b3b3b3" />
	</g>
	<g
   class="st1"
   id="g12">
		<g
   id="g10">
			<path
   class="st2"
   d="M 48,32 C 48,23.2 40.8,16 32,16 24.5,16 18.2,21.2 16.5,28.1 11.7,28.9 8,33 8,38 c 0,5.5 4.5,10 10,10 h 8 c 1.1,0 2,-0.9 2,-2 V 40.5 C 28,39.7 27.3,39 26.5,39 h -3.1 c -1.5,0 -1.9,-1 -0.9,-2.2 L 30.2,27 c 1,-1.2 2.6,-1.2 3.5,0 l 7.7,9.8 C 42.4,38 42,39 40.5,39 h -3.1 c -0.8,0 -1.5,0.7 -1.5,1.5 V 46 c 0,1.1 0.9,2 2,2 h 10 c 4.4,0 8,-3.6 8,-8 0,-4.4 -3.5,-8 -7.9,-8 z"
   id="path8" />
		</g>
	</g>
	<g
   id="g18">
		<g
   id="g16">
			<path
   class="st3"
   d="M 48,30 C 48,21.2 40.8,14 32,14 24.5,14 18.2,19.2 16.5,26.1 11.7,26.9 8,31 8,36 c 0,5.5 4.5,10 10,10 h 8 c 1.1,0 2,-0.9 2,-2 V 38.5 C 28,37.7 27.3,37 26.5,37 h -3.1 c -1.5,0 -1.9,-1 -0.9,-2.2 L 30.2,25 c 1,-1.2 2.6,-1.2 3.5,0 l 7.7,9.8 C 42.4,36 42,37 40.5,37 h -3.1 c -0.8,0 -1.5,0.7 -1.5,1.5 V 44 c 0,1.1 0.9,2 2,2 h 10 c 4.4,0 8,-3.6 8,-8 0,-4.4 -3.5,-8 -7.9,-8 z"
   id="path14" />
		</g>
	</g>
</g>
<g
   id="Layer_2">
</g>
</svg>
